# xmcd CD database file
#
# Track frame offsets:
#	150
#	36754
#	71533
#	94287
#	157191
#	252770
#	305174
#
# Disc length: 4482 seconds
#
# Revision: 0
# Processed by: cddbd v1.5.2PL0 Copyright (c) Steve Scherf et al.
# Submitted via: CDex 1.70beta2
#
DISCID=5e118007
DTITLE=John Coltrane - Impressions
DYEAR=1900
DGENRE=Jazz
TTITLE0=Naima
TTITLE1=Afro blue
TTITLE2=Like someone in love
TTITLE3=Lush life
TTITLE4=My favourite things
TTITLE5=Impressions
TTITLE6=Blue train
EXTD=
EXTT0=
EXTT1=
EXTT2=
EXTT3=
EXTT4=
EXTT5=
EXTT6=
PLAYORDER=
